<svg id="Calque_1" data-name="Calque 1" xmlns="http://www.w3.org/2000/svg" viewBox="0 0 211.42 66.26"><defs><style>.cls-1{fill:#ff6060;}</style></defs><title>logo</title><path class="cls-1" d="M20.07,34.65,8.84,46.14V62.26H0V0H8.84V34.83L42.36,0H52.49L26.15,28,54.33,62.26H44Z"/><path class="cls-1" d="M108.89,32.72,87,19.93l-12.15-7-12,20.94L63,53.47,84.76,66.26,87,65V46.43L96.74,29.2l9.94,5.74V53.47l2.21-1.3Z"/><path class="cls-1" d="M119.15,56.87l3.5-6.67A30.56,30.56,0,0,0,139,55c7.92,0,11.05-2.41,11.05-6.49,0-10.56-29.65-1.48-29.65-20.19,0-8.52,7.55-14.08,19.52-14.08,6.08,0,13.08,1.66,17.13,4.26l-3.68,6.67A23.87,23.87,0,0,0,140,21.48c-7.37,0-11.05,2.78-11.05,6.49,0,11.12,29.65,2,29.65,20.38,0,8.52-7.73,13.9-20.26,13.9C130.75,62.43,123,60,119.15,56.87Z"/><path class="cls-1" d="M211.42,33.35V61.89h-8.11v-6.3c-2.76,4.26-8.1,6.67-15.47,6.67-10.68,0-17.31-5.75-17.31-13.9,0-7.6,4.79-13.71,18.79-13.71h13.44V33c0-7.23-4.24-11.3-12.52-11.3a24.92,24.92,0,0,0-14.92,5l-3.5-6.48c4.79-3.89,11.79-6.12,19.34-6.12C204.23,14.27,211.42,20.57,211.42,33.35Zm-8.48,14.08V40.76H189.87C181.4,40.76,179,44.1,179,48c0,4.63,3.87,7.6,10.32,7.6C195.76,55.77,200.92,53,202.94,47.43Z"/></svg>